# xmcd CD database file
#
# Track frame offsets:
#	150
#	24497
#	59750
#	91704
#	120932
#	147872
#	173945
#	202615
#	231657
#
# Disc length: 3412 seconds
#
# Revision: 2
# Processed by: cddbd v1.4PL0 Copyright (c) Steve Scherf et al.
# Submitted via: CDex 1.40Beta4
#
DISCID=720d5209
DTITLE=Ghulam Ali - Parchhaiyan
DYEAR=2002
DGENRE=Blues
TTITLE0=Thehar Jao Ke Hairani To Jaaye
TTITLE1=Jab Se Usne Shehar Ko Chhoda
TTITLE2=Dhekna Hai to Unhain Door Se
TTITLE3=Ek Wada Hai Kisi Ka
TTITLE4=Bikharti Zulf Ki Parchhaiyan Mujha De Do
TTITLE5=Woh Hi Palkon Ka Jhapakna
TTITLE6=Mushkil Hai Bachana Dil Ka
TTITLE7=Yah Ali
TTITLE8=Woh Koi Aur Na Tha Chand Khusk Patte Thay
EXTD=YEAR: 2002 ID3G:   0
EXTT0=
EXTT1=
EXTT2=
EXTT3=
EXTT4=
EXTT5=
EXTT6=
EXTT7=
EXTT8=
PLAYORDER=
